solid Mesh
  facet normal 0 0 -1
    outer loop
      vertex 49.1703 54.1614 0
      vertex 49.1703 0 0
      vertex 0 54.1614 0
    endloop
  endfacet
  facet normal 0 0 -1
    outer loop
      vertex 49.1703 0 0
      vertex 0 0 0
      vertex 0 54.1614 0
    endloop
  endfacet
  facet normal 0 0 1
    outer loop
      vertex 49.1703 0 25.4
      vertex 49.1703 54.1614 25.4
      vertex 0 0 25.4
    endloop
  endfacet
  facet normal 0 0 1
    outer loop
      vertex 49.1703 54.1614 25.4
      vertex 0 54.1614 25.4
      vertex 0 0 25.4
    endloop
  endfacet
  facet normal 0 1 0
    outer loop
      vertex 0 54.1614 25.4
      vertex 49.1703 54.1614 25.4
      vertex 0 54.1614 0
    endloop
  endfacet
  facet normal 0 1 0
    outer loop
      vertex 49.1703 54.1614 25.4
      vertex 49.1703 54.1614 0
      vertex 0 54.1614 0
    endloop
  endfacet
  facet normal 1 0 0
    outer loop
      vertex 49.1703 54.1614 25.4
      vertex 49.1703 0 25.4
      vertex 49.1703 54.1614 0
    endloop
  endfacet
  facet normal 1 0 0
    outer loop
      vertex 49.1703 0 25.4
      vertex 49.1703 0 0
      vertex 49.1703 54.1614 0
    endloop
  endfacet
  facet normal -1 0 0
    outer loop
      vertex 0 0 25.4
      vertex 0 54.1614 25.4
      vertex 0 0 0
    endloop
  endfacet
  facet normal -1 0 0
    outer loop
      vertex 0 54.1614 25.4
      vertex 0 54.1614 0
      vertex 0 0 0
    endloop
  endfacet
  facet normal 0 -1 0
    outer loop
      vertex 49.1703 0 25.4
      vertex 0 0 25.4
      vertex 49.1703 0 0
    endloop
  endfacet
  facet normal 0 -1 0
    outer loop
      vertex 0 0 25.4
      vertex 0 0 0
      vertex 49.1703 0 0
    endloop
  endfacet
endsolid Mesh
